<?xml version="1.0" encoding="UTF-8"?>
<svg width="659px" height="291px" viewBox="0 0 659 291" version="1.1" xmlns="http://www.w3.org/2000/svg" xmlns:xlink="http://www.w3.org/1999/xlink">
    <!-- Generator: Sketch 62 (91390) - https://sketch.com -->
    <title>nhbc-seeklogo.com</title>
    <desc>Created with Sketch.</desc>
    <g id="Page-1" stroke="none" stroke-width="1" fill="none" fill-rule="evenodd">
        <g id="Artboard" transform="translate(-213.000000, -105.000000)">
            <g id="nhbc-seeklogo.com" transform="translate(213.000000, 105.000000)">
                <polygon id="Fill-1" fill="#FFFFFE" points="0 291 658.462 291 658.462 0 0 0"></polygon>
                <polygon id="Fill-3" fill="#213441" points="8.534 236.43 649.941 236.43 649.941 8.475 8.534 8.475"></polygon>
                <polygon id="Fill-4" fill="#758990" points="8.534 282.91 649.941 282.91 649.941 244.917 8.534 244.917"></polygon>
                <path d="M269.608,23.897 C266.514,28.37 196.293,127.572 196.293,127.572 C193.649,131.375 191.86,133.204 191.86,133.204 C191.244,134.045 190.469,134.496 189.72,134.496 C188.965,134.496 188.216,134.045 187.6,133.224 C187.6,133.224 154.054,89.652 151.165,85.79 L151.165,139.161 C151.502,139.611 187.812,188.364 187.812,188.364 C188.415,189.179 189.184,189.643 189.946,189.643 C190.701,189.643 191.45,189.179 192.079,188.351 C192.079,188.351 269.33,78.693 269.608,78.256 L269.608,23.897" id="Fill-5" fill="#BF2350"></path>
                <path d="M373.219,170.472 L373.219,127.357 L417.738,127.357 C434.362,127.357 442.844,135.023 442.844,150.123 C442.844,164.721 433.673,173.096 417.738,173.096 L373.219,173.096 L373.219,170.472 Z M373.219,102.272 L373.219,69.898 L415.93,69.898 C430.486,69.898 437.894,75.828 437.894,87.503 C437.894,95.44 434.349,104.889 417.473,104.889 L373.219,104.889 L373.219,102.272 Z M347.736,46.323 L347.736,197.578 L416.625,197.578 C450.006,197.578 469.943,179.661 469.943,149.667 C469.943,129.888 457.136,121.248 449.495,117.869 L444.845,115.815 L449.151,113.211 C459.097,107.221 464.55,97.216 464.55,85.051 C464.55,60.443 447.289,46.323 417.281,46.323 L347.736,46.323 L347.736,46.323 Z" id="Fill-6" fill="#FFFFFE"></path>
                <path d="M551.252,46.033 C575.516,46.033 593.08,56.197 603.682,76.028 C599.832,77.804 583.108,85.49 579.875,86.967 C573.554,76.519 563.847,71.171 550.86,71.171 C527.346,71.171 512.133,91.142 512.133,122.025 C512.133,152.431 527.776,172.885 551.039,172.885 C564.583,172.885 573.368,167.57 581.836,154.412 C585.116,156.333 600.084,165.186 603.377,167.12 C592.577,187.554 574.74,198.01 550.178,198.01 C511.079,198.01 485.781,168.181 485.781,122.025 C485.781,77.274 512.716,46.033 551.252,46.033" id="Fill-7" fill="#FFFFFE"></path>
                <polyline id="Fill-8" fill="#FFFFFE" points="151.267 46.321 176.988 46.321 176.988 109.797 151.24 75.972 151.267 46.321"></polyline>
                <path d="M176.99,186.582 L176.99,197.581 L152.945,197.581 L80.074,88.407 L80.001,197.581 L54.783,197.555 L54.783,46.32 L80.835,46.32 C82.379,48.619 151.242,152.373 151.242,152.373 L176.99,186.582" id="Fill-9" fill="#FFFFFE"></path>
                <polyline id="Fill-10" fill="#FFFFFE" points="228.198 71.938 201.993 109.951 201.993 46.316 228.198 46.316 228.198 71.938"></polyline>
                <path d="M201.993,188.02 C208.188,179.015 217.915,164.915 228.198,150 L228.198,197.912 L201.993,197.912 L201.993,188.02" id="Fill-11" fill="#FFFFFE"></path>
                <path d="M324.184,46.318 L324.184,197.56 L298.005,197.56 L298.005,131.831 L240.467,131.831 C246.827,122.608 252.937,113.736 258.111,106.235 L298.005,106.235 L298.005,46.318 L324.184,46.318" id="Fill-12" fill="#FFFFFE"></path>
            </g>
        </g>
    </g>
</svg>