<svg xmlns="http://www.w3.org/2000/svg" id="Layer_1" viewBox="0 0 24 24">
<style>.adapt{fill:#fff}</style>
<path d="M12.1.6C5.7.6.6 5.7.6 12.1c0 6.3 5.2 11.5 11.5 11.5s11.5-5.2 11.5-11.5C23.6 5.7 18.4.6 12.1.6zm0 21.3c-5.4 0-9.8-4.4-9.8-9.8s4.4-9.8 9.8-9.8 9.8 4.4 9.8 9.8-4.4 9.8-9.8 9.8z" class="adapt"></path>
<path d="M14 8.9c-.6-.9-1.8-1.2-2.6-1.2-2.2 0-4.3 1.7-4.3 4.4s2.1 4.4 4.3 4.4c.8 0 2.1-.4 2.6-1.2v1.1h2.2V7.9H14v1zm-2.3 5.4c-1.2 0-2.3-.9-2.3-2.3s1.1-2.3 2.3-2.3c1.1 0 2.3.8 2.3 2.3 0 1.5-1.1 2.3-2.3 2.3z" class="adapt"></path>
</svg>