<?xml version="1.0" encoding="UTF-8"?>
<svg width="220px" height="42px" viewBox="0 0 220 42" version="1.1" xmlns="http://www.w3.org/2000/svg" xmlns:xlink="http://www.w3.org/1999/xlink">
    <title>spitfire-logo-m</title>
    <g id="Global" stroke="none" stroke-width="1" fill="none" fill-rule="evenodd">
        <g id="spitfire-logo-m">
            <path d="M215.122357,10 C217.929846,10 219.60684,11.8372642 219.60684,14.9145619 L219.60684,14.9145619 L219.60684,15.8539812 L218.634311,15.8539812 L218.634311,14.8849802 C218.634311,12.3809282 217.353828,10.9442163 215.122357,10.9442163 C212.905247,10.9442163 211.581682,12.3833267 211.581682,14.794636 C211.581682,16.8469673 212.538255,18.2365083 215.51807,20.5135007 C218.704518,22.9471963 219.727309,24.5438093 219.727309,27.0846386 C219.727309,30.1619363 218.016807,32 215.152674,32 C212.30689,32 210.608356,30.1619363 210.608356,27.0846386 L210.608356,27.0846386 L210.608356,25.8134244 L211.550568,25.8134244 L211.550568,27.1142203 C211.550568,29.6182723 212.863761,31.0549842 215.152674,31.0549842 C217.441587,31.0549842 218.753982,29.6182723 218.753982,27.1142203 C218.753982,24.8915943 217.812568,23.4724716 214.879823,21.2746302 C211.686195,18.8369372 210.608356,17.2091434 210.608356,14.8250173 C210.608356,11.8484573 212.338005,10 215.122357,10 Z M159.842779,10 C162.83137,10 164.477249,11.8308682 164.477249,15.1560126 L164.477249,15.1560126 L164.477249,26.8431878 C164.477249,30.1683323 162.83137,32 159.842779,32 C156.854187,32 155.208308,30.1683323 155.208308,26.8431878 L155.208308,26.8431878 L155.208308,15.1560126 C155.208308,11.8308682 156.854187,10 159.842779,10 Z M137.973327,10.3014137 L137.973327,20.0905622 L145.235779,20.0905622 L145.235779,10.3014137 L146.208308,10.3014137 L146.208308,31.6977868 L145.235779,31.6977868 L145.235779,21.0051968 L137.973327,21.0051968 L137.973327,31.6977868 L137,31.6977868 L137,10.3014137 L137.973327,10.3014137 Z M174.838311,10.3014137 L174.867032,10.4213395 L179.433689,29.6310644 L184.000346,10.3014137 L185.361407,10.3014137 L185.361407,31.6977868 L184.388081,31.6977868 L184.388081,12.631973 L179.858123,31.6977868 L178.950217,31.6977868 L174.420259,12.631973 L174.420259,31.6977868 L173.477249,31.6977868 L173.477249,10.3014137 L174.838311,10.3014137 Z M202.608356,10.3014137 L202.608356,11.24563 L195.334734,11.24563 L195.334734,20.0905622 L201.436375,20.0905622 L201.436375,21.0051968 L195.334734,21.0051968 L195.334734,30.7535705 L202.608356,30.7535705 L202.608356,31.6977868 L194.361407,31.6977868 L194.361407,10.3014137 L202.608356,10.3014137 Z M159.842779,10.9442163 C157.412653,10.9442163 156.180837,12.3513464 156.180837,15.1264309 L156.180837,15.1264309 L156.180837,26.8727696 C156.180837,29.6478541 157.412653,31.0549842 159.842779,31.0549842 C162.272106,31.0549842 163.503923,29.6478541 163.503923,26.8727696 L163.503923,26.8727696 L163.503923,15.1264309 C163.503923,12.3513464 162.272106,10.9442163 159.842779,10.9442163 Z" id="Fill-17" fill="#212925"></path>
            <path d="M4.84486486,9.75675676 C7.96216216,9.75675676 9.59783784,11.6708108 9.59783784,14.9718919 L9.59783784,15.8367568 L7.31405405,15.8367568 L7.31405405,14.8178378 C7.31405405,12.8740541 6.41945946,11.9481081 4.84486486,11.9481081 C3.30216216,11.9481081 2.37621622,12.8740541 2.37621622,14.7567568 C2.37621622,16.5464865 3.24054054,17.7805405 5.80216216,19.88 C8.76486486,22.3486486 9.72162162,24.0767568 9.72162162,26.7 C9.72162162,30.0637838 7.96216216,31.9772973 4.81459459,31.9772973 C1.66702703,31.9772973 7.10542736e-15,30.0637838 7.10542736e-15,26.7308108 L7.10542736e-15,25.527027 L2.28378378,25.527027 L2.28378378,26.9162162 C2.28378378,28.86 3.24054054,29.7859459 4.78378378,29.7859459 C6.3572973,29.7859459 7.31405405,28.86 7.31405405,26.8848649 C7.31405405,24.8789189 6.48054054,23.6140541 3.98108108,21.5464865 C0.987567568,19.0767568 7.10542736e-15,17.3486486 7.10542736e-15,14.9108108 C7.10542736e-15,11.6708108 1.72810811,9.75675676 4.84486486,9.75675676 Z M119.181622,10.0654054 L119.181622,12.2567568 L112.730811,12.2567568 L112.730811,19.292973 L117.978378,19.292973 L117.978378,21.4843243 L112.730811,21.4843243 L112.730811,29.4772973 L119.181622,29.4772973 L119.181622,31.6686486 L110.324324,31.6686486 L110.324324,10.0654054 L119.181622,10.0654054 Z M22.8562162,10.0654054 C26.1897297,10.0654054 27.732973,11.8248649 27.732973,15.3118919 L27.732973,17.1637838 C27.732973,20.6508108 26.1897297,22.3789189 22.8562162,22.3789189 L20.5416216,22.3789189 L20.5416216,31.6686486 L18.1345946,31.6686486 L18.1345946,10.0654054 L22.8562162,10.0654054 Z M38.1048649,10.0654054 L38.1048649,31.6686486 L35.6978378,31.6686486 L35.6978378,10.0654054 L38.1048649,10.0654054 Z M55.987027,10.0654054 L55.987027,12.2567568 L52.16,12.2567568 L52.16,31.6686486 L49.752973,31.6686486 L49.752973,12.2567568 L45.9254054,12.2567568 L45.9254054,10.0654054 L55.987027,10.0654054 Z M72.4259459,10.0654054 L72.4259459,12.2567568 L66.252973,12.2567568 L66.252973,19.6016216 L71.2216216,19.6016216 L71.2216216,21.792973 L66.252973,21.792973 L66.252973,31.6686486 L63.8459459,31.6686486 L63.8459459,10.0654054 L72.4259459,10.0654054 Z M82.9659459,10.0654054 L82.9659459,31.6686486 L80.5589189,31.6686486 L80.5589189,10.0654054 L82.9659459,10.0654054 Z M96.7275676,10.0654054 C100.154054,10.0654054 101.603784,11.6086486 101.603784,14.9718919 L101.603784,16.2994595 C101.603784,18.6756757 100.831892,20.0951351 99.1043243,20.6508108 L99.1043243,20.6821622 C100.924865,21.1448649 101.634595,22.6572973 101.634595,25.1875676 L101.634595,29.0454054 C101.634595,30.032973 101.665946,30.8972973 101.943243,31.6686486 L99.5048649,31.6686486 C99.32,31.0518919 99.227027,30.4956757 99.227027,29.0454054 L99.227027,25.0643243 C99.227027,22.7183784 98.3945946,21.9162162 96.3572973,21.9162162 L94.4135135,21.9162162 L94.4135135,31.6686486 L92.0059459,31.6686486 L92.0059459,10.0654054 L96.7275676,10.0654054 Z M22.8562162,12.2567568 L20.5416216,12.2567568 L20.5416216,20.1881081 L22.8562162,20.1881081 C24.5540541,20.1881081 25.3254054,19.4162162 25.3254054,17.287027 L25.3254054,15.1572973 C25.3254054,13.0281081 24.5540541,12.2567568 22.8562162,12.2567568 Z M96.6659459,12.2567568 L94.4135135,12.2567568 L94.4135135,19.7254054 L96.3572973,19.7254054 C98.2394595,19.7254054 99.1962162,18.9227027 99.1962162,16.7627027 L99.1962162,15.2194595 C99.1962162,13.1210811 98.4562162,12.2567568 96.6659459,12.2567568 Z" id="Fill-16" fill="#212925"></path>
            <polygon id="Fill-14" fill="#857D56" points="0 0.756756757 220 0.756756757 220 1.13686838e-13 0 1.13686838e-13"></polygon>
            <polygon id="Fill-15" fill="#857D56" points="0 41.7340541 220 41.7340541 220 40.9772973 0 40.9772973"></polygon>
        </g>
    </g>
</svg>