<?xml version="1.0" encoding="UTF-8"?>
<svg width="108px" height="60px" viewBox="0 0 108 60" version="1.1" xmlns="http://www.w3.org/2000/svg" xmlns:xlink="http://www.w3.org/1999/xlink">
    <title>Logo Copy</title>
    <g id="Home" stroke="none" stroke-width="1" fill="none" fill-rule="evenodd">
        <g id="Home-1" transform="translate(-140.000000, -3472.000000)">
            <g id="Footer" transform="translate(0.000000, 3372.000000)">
                <g id="Logo-Copy" transform="translate(140.000000, 100.000000)">
                    <rect id="Rectangle" fill="#998152" x="0" y="0" width="107.462687" height="1"></rect>
                    <rect id="Rectangle-Copy" fill="#998152" x="0" y="58.9667049" width="107.462687" height="1"></rect>
                    <path d="M4.39898298,29.1204496 C7.27524108,29.1204496 8.88256178,27.3721358 8.88256178,24.2984874 C8.88256178,21.9016057 8.00840491,20.3224836 5.30133846,18.0665949 C2.96085393,16.1490895 2.17129288,15.0211451 2.17129288,13.3856258 C2.17129288,11.6655107 3.01725114,10.8195524 4.42718159,10.8195524 C5.86531064,10.8195524 6.68307029,11.6655107 6.68307029,13.4420231 L6.68307029,14.3725771 L8.76976734,14.3725771 L8.76976734,13.5830161 C8.76976734,10.565765 7.27524108,8.81745121 4.42718159,8.81745121 C1.57912209,8.81745121 0,10.565765 0,13.5266189 C0,15.754309 0.902355482,17.3334311 3.63762054,19.5893198 C5.92170785,21.4786266 6.68307029,22.6347695 6.68307029,24.4676791 C6.68307029,26.2723901 5.80891342,27.1183483 4.37078437,27.1183483 C2.96085393,27.1183483 2.08669705,26.2723901 2.08669705,24.4958777 L2.08669705,23.2269403 L0,23.2269403 L0,24.3266861 C0,27.3721358 1.52272488,29.1204496 4.39898298,29.1204496 Z M18.4214324,28.8384635 L18.4214324,20.3506822 L20.536328,20.3506822 C23.5817778,20.3506822 24.9917082,18.7715601 24.9917082,15.5851173 L24.9917082,13.8932008 C24.9917082,10.706758 23.5817778,9.09943729 20.536328,9.09943729 L16.2219409,9.09943729 L16.2219409,28.8384635 L18.4214324,28.8384635 Z M20.536328,18.348581 L18.4214324,18.348581 L18.4214324,11.1015385 L20.536328,11.1015385 C22.0872515,11.1015385 22.7922167,11.8065037 22.7922167,13.7522077 L22.7922167,15.6979118 C22.7922167,17.6436158 22.0872515,18.348581 20.536328,18.348581 Z M34.4741816,28.8384635 L34.4741816,9.09943729 L32.2746901,9.09943729 L32.2746901,28.8384635 L34.4741816,28.8384635 Z M47.2276936,28.8384635 L47.2276936,11.1015385 L50.724321,11.1015385 L50.724321,9.09943729 L41.5315746,9.09943729 L41.5315746,11.1015385 L45.0282021,11.1015385 L45.0282021,28.8384635 L47.2276936,28.8384635 Z M59.9812055,28.8384635 L59.9812055,19.8149086 L64.5211816,19.8149086 L64.5211816,17.8128074 L59.9812055,17.8128074 L59.9812055,11.1015385 L65.6209273,11.1015385 L65.6209273,9.09943729 L57.781714,9.09943729 L57.781714,28.8384635 L59.9812055,28.8384635 Z M74.8778118,28.8384635 L74.8778118,9.09943729 L72.6783203,9.09943729 L72.6783203,28.8384635 L74.8778118,28.8384635 Z M85.0088531,28.8384635 L85.0088531,19.9277031 L86.7853655,19.9277031 C88.6464737,19.9277031 89.4078361,20.6608669 89.4078361,22.8039612 L89.4078361,26.4415817 C89.4078361,27.7669163 89.492432,28.2744913 89.6616236,28.8384635 L91.8893137,28.8384635 C91.6355262,28.1334982 91.6073276,27.3439372 91.6073276,26.4415817 L91.6073276,22.9167556 C91.6073276,20.6044697 90.9587596,19.2227379 89.2950417,18.7997587 L89.2950417,18.7715601 C90.8741638,18.2639852 91.579129,16.9668492 91.579129,14.7955563 L91.579129,13.5830161 C91.579129,10.5093677 90.2537944,9.09943729 87.1237488,9.09943729 L82.8093617,9.09943729 L82.8093617,28.8384635 L85.0088531,28.8384635 Z M86.7853655,17.9256019 L85.0088531,17.9256019 L85.0088531,11.1015385 L87.0673516,11.1015385 C88.7028709,11.1015385 89.3796375,11.8910996 89.3796375,13.808605 L89.3796375,15.2185354 C89.3796375,17.192438 88.5054806,17.9256019 86.7853655,17.9256019 Z M107.462687,28.8384635 L107.462687,26.8363622 L101.569177,26.8363622 L101.569177,19.5329226 L106.362941,19.5329226 L106.362941,17.5308213 L101.569177,17.5308213 L101.569177,11.1015385 L107.462687,11.1015385 L107.462687,9.09943729 L99.3696858,9.09943729 L99.3696858,28.8384635 L107.462687,28.8384635 Z" id="SPITFIRE" fill="#FFFFFF" fill-rule="nonzero"></path>
                    <path d="M27.0315005,50.3906114 L27.0315005,43.9989998 L31.0262578,43.9989998 L31.0262578,50.3906114 L31.88095,50.3906114 L31.88095,37.3844249 L31.0262578,37.3844249 L31.0262578,43.2186286 L27.0315005,43.2186286 L27.0315005,37.3844249 L26.1768083,37.3844249 L26.1768083,50.3906114 L27.0315005,50.3906114 Z M41.2454043,50.5764141 C43.0848507,50.5764141 44.1067653,49.4801783 44.1067653,47.436349 L44.1067653,40.3386873 C44.1067653,38.294858 43.0848507,37.1986223 41.2454043,37.1986223 C39.4059579,37.1986223 38.3840433,38.294858 38.3840433,40.3386873 L38.3840433,47.436349 C38.3840433,49.4801783 39.4059579,50.5764141 41.2454043,50.5764141 Z M41.2454043,49.7960429 C39.9447856,49.7960429 39.2387355,49.0342519 39.2387355,47.4920898 L39.2387355,40.2829465 C39.2387355,38.7407844 39.9447856,37.9789935 41.2454043,37.9789935 C42.5460229,37.9789935 43.2520731,38.7407844 43.2520731,40.2829465 L43.2520731,47.4920898 C43.2520731,49.0342519 42.5460229,49.7960429 41.2454043,49.7960429 Z M51.40881,50.3906114 L51.40881,38.5549817 L53.991467,50.3906114 L54.7532579,50.3906114 L57.335915,38.5549817 L57.335915,50.3906114 L58.1906072,50.3906114 L58.1906072,37.3844249 L56.852828,37.3844249 L54.4002329,48.7369677 L51.9476377,37.3844249 L50.6098585,37.3844249 L50.6098585,50.3906114 L51.40881,50.3906114 Z M69.9333356,50.3906114 L69.9333356,49.6102402 L65.6970348,49.6102402 L65.6970348,43.9989998 L69.2087052,43.9989998 L69.2087052,43.2186286 L65.6970348,43.2186286 L65.6970348,38.1647961 L69.9333356,38.1647961 L69.9333356,37.3844249 L64.8423426,37.3844249 L64.8423426,50.3906114 L69.9333356,50.3906114 Z M78.4616778,50.5764141 C80.2639637,50.5764141 81.2858783,49.4615981 81.2858783,47.5478306 C81.2858783,45.9870883 80.70989,44.9837539 78.8332831,43.5159128 C77.1053184,42.1595534 76.5293301,41.3234414 76.5293301,40.1157241 C76.5293301,38.7593646 77.2539605,37.9789935 78.4616778,37.9789935 C79.6879754,37.9789935 80.3940255,38.7407844 80.3940255,40.1714649 L80.3940255,40.7288729 L81.2115572,40.7288729 L81.2115572,40.2272057 C81.2115572,38.3134383 80.2268031,37.1986223 78.4616778,37.1986223 C76.6965525,37.1986223 75.6746379,38.3134383 75.6746379,40.1714649 C75.6746379,41.6393059 76.2877866,42.6426403 78.1829738,44.1104814 C79.8737781,45.4296803 80.431186,46.2843725 80.431186,47.6035714 C80.431186,49.0342519 79.6879754,49.7960429 78.4616778,49.7960429 C77.2353802,49.7960429 76.4921696,49.0342519 76.4921696,47.6035714 L76.4921696,46.8417805 L75.6746379,46.8417805 L75.6746379,47.5478306 C75.6746379,49.4615981 76.6779722,50.5764141 78.4616778,50.5764141 Z" id="HOMES" fill="#FFFFFF" fill-rule="nonzero"></path>
                </g>
            </g>
        </g>
    </g>
</svg>